<svg xmlns="http://www.w3.org/2000/svg" viewBox="0 0 52 54" fill="none">
<g id="Group">
<path id="Vector" d="M26.7498 14.0796L30.4285 10.3995C31.4865 9.34145 32.8804 8.81278 34.2737 8.81278C35.6669 8.81278 37.0616 9.34145 38.1196 10.3995C39.177 11.4568 39.7077 12.8522 39.7077 14.2454C39.7077 15.6372 39.1777 17.0312 38.1203 18.0892L34.4416 21.7701C33.3843 22.8274 31.9882 23.3575 30.5964 23.3575C29.3924 23.3575 28.1869 22.9613 27.1991 22.169L25.6492 23.7189C26.4415 24.7075 26.8376 25.9122 26.8376 27.1155C26.8376 28.5059 26.309 29.8992 25.2516 30.9572L21.5722 34.6401C20.5142 35.6982 19.1196 36.2269 17.7263 36.2269C16.3331 36.2269 14.9384 35.6982 13.8627 34.6203C12.811 33.5474 12.293 32.1697 12.293 30.7935C12.293 29.4003 12.823 28.0049 13.8804 26.9476L17.598 23.2334C18.6518 22.1995 20.0281 21.6822 21.4043 21.6822C22.6083 21.6822 23.8123 22.0783 24.8002 22.8699L26.3501 21.32C25.5578 20.3315 25.1624 19.1274 25.1624 17.9241C25.1624 16.5323 25.6917 15.1398 26.7498 14.0796ZM13.9647 40.6709H38.0353C40.7169 40.6709 43.159 39.5696 44.9292 37.7994C46.6995 36.0291 47.8007 33.5864 47.8007 30.9048V14.1349C47.8007 11.4533 46.6995 9.01121 44.9292 7.24096C43.159 5.47071 40.7169 4.36944 38.0353 4.36944H13.9654C11.2838 4.36944 8.84104 5.47071 7.07079 7.24096C5.30054 9.01121 4.19928 11.4533 4.19928 14.1349V30.9048C4.19928 33.5864 5.30054 36.0291 7.07079 37.7994C8.84104 39.5696 11.2831 40.6709 13.9647 40.6709ZM38.0353 41.8714H13.9647C10.9515 41.8714 8.20891 40.6355 6.22181 38.6484C4.23471 36.6613 2.99879 33.9187 2.99879 30.9048V14.1349C2.99879 11.1216 4.23471 8.37908 6.22181 6.39198C8.20891 4.40487 10.9515 3.16896 13.9654 3.16896H38.0353C41.0485 3.16896 43.7911 4.40487 45.7782 6.39198C47.7653 8.37908 49.0012 11.1216 49.0012 14.1349V30.9048C49.0012 33.9187 47.7653 36.6613 45.7782 38.6484C43.7911 40.6355 41.0485 41.8714 38.0353 41.8714ZM38.0353 0.935242H13.9654C10.3356 0.935242 7.03536 2.42061 4.6429 4.81307C2.25115 7.20482 0.765076 10.5058 0.765076 14.1349V30.9048C0.765076 34.1214 1.93083 37.0794 3.85912 39.3748C5.81787 41.7084 8.57033 43.3603 11.7225 43.9159C12.0733 44.0186 12.254 44.3524 12.1597 44.6692L9.66097 53.0641L24.9809 44.2086C25.0773 44.1434 25.1928 44.1051 25.3176 44.1051H38.0353C41.6644 44.1051 44.9653 42.619 47.3571 40.2273C49.7496 37.8348 51.2349 34.5346 51.2349 30.9048V14.1349C51.2349 10.5037 49.751 7.2034 47.3599 4.81307C44.9668 2.41919 41.6665 0.935242 38.0353 0.935242ZM21.2151 28.153C20.9812 28.3869 20.6 28.3869 20.3661 28.153C20.1322 27.9192 20.1322 27.5379 20.3661 27.304L23.9463 23.7246C23.1972 23.1626 22.3008 22.8827 21.4043 22.8827C20.3314 22.8827 19.2577 23.2838 18.4236 24.1016L14.7294 27.7966C13.9059 28.62 13.4934 29.7071 13.4934 30.7935C13.4934 31.8664 13.8945 32.9408 14.7131 33.7756C15.5528 34.6146 16.6399 35.0264 17.7263 35.0264C18.8127 35.0264 19.8998 34.6146 20.7233 33.7912L24.4012 30.1125C25.2261 29.289 25.6372 28.2019 25.6372 27.1155C25.6372 26.2191 25.3565 25.3212 24.796 24.5721L21.2151 28.153ZM27.2047 20.4661L30.7849 16.8859C31.0188 16.6521 31.4 16.6521 31.6339 16.8859C31.8678 17.1198 31.8678 17.501 31.6339 17.7349L28.053 21.3151C28.8014 21.8763 29.6992 22.157 30.5964 22.157C31.6821 22.157 32.7692 21.7445 33.5919 20.9218L37.2713 17.2431C38.0955 16.421 38.5073 15.3325 38.5073 14.2454C38.5073 13.159 38.0941 12.0719 37.2706 11.2485C36.4472 10.425 35.3601 10.0133 34.2737 10.0133C33.1873 10.0133 32.1009 10.425 31.2774 11.2485L27.5988 14.9272C26.7746 15.7499 26.3628 16.837 26.3628 17.9241C26.3628 18.8206 26.6435 19.717 27.2047 20.4661Z" fill="white"/>
</g>
</svg>
